<svg xmlns="http://www.w3.org/2000/svg" viewBox="0 0 87.36 30.54"><defs><style>.cls-1{fill:#fff;}</style></defs><title>icon</title><g id="Layer_2" data-name="Layer 2"><g id="Layer_1-2" data-name="Layer 1"><path class="cls-1" d="M26.09,25.41l-.56-.55a.66.66,0,0,0-1,0,12.23,12.23,0,0,1-16,0c-.36-.31-.56-.3-.89,0-.63.6-1.56,1-1.89,1.77a6.52,6.52,0,0,0-.11,2.59c0,1,.31,1.34,1.37,1.34H26.16c.77,0,1.24-.27,1.27-.87C27.49,28,27.39,26.7,26.09,25.41Z"/><path class="cls-1" d="M16.48,27.24A11.73,11.73,0,1,0,4.79,15.45,11.75,11.75,0,0,0,16.48,27.24Zm.24-22.33A10.6,10.6,0,1,1,5.92,15.45,10.62,10.62,0,0,1,16.72,4.91Z"/><path class="cls-1" d="M3,4.58c0,2-1.1,2.82-3,2.89,1.69.27,3,.91,3,2.89.1-1.91,1.22-2.67,2.89-2.87C3.59,7,3.47,6.87,3,4.58Z"/><path class="cls-1" d="M7,4c.1-1.32.91-1.81,2.22-2C8.49,1.8,8,1.83,7.57,1.44A3.18,3.18,0,0,1,7,0a2.92,2.92,0,0,1-.72,1.46A2.79,2.79,0,0,1,4.76,2C6,2.22,7,2.59,7,4Z"/><path class="cls-1" d="M19.88,9a9.28,9.28,0,0,1,4.86,6.37A8.75,8.75,0,0,1,24.57,20c.28,0,.29-.15.34-.25A9.51,9.51,0,0,0,21.48,7.34c-1.08-.67-1.08-.67-1.65.49a3.22,3.22,0,0,1-.2.37C19.38,8.57,19.42,8.76,19.88,9Z"/><path class="cls-1" d="M16.52,8c.5,0,1.12.29,1.48.1a5.39,5.39,0,0,0,.73-1.39c.17-.31.19-.47-.24-.54a11.84,11.84,0,0,0-1.78-.21,9.59,9.59,0,0,0-8.93,5.53c.17,0,.23,0,.25,0a3.61,3.61,0,0,0,.35-.33A9.53,9.53,0,0,1,16.52,8Z"/><path class="cls-1" d="M12,16.2c.28-.77.26-1.63.87-2.24s1.44-.57,2.26-.94c-2.29-.28-2.33-.33-3.19-3,.13,2.12-1,3-3,3C11.31,13.79,11.58,13.69,12,16.2Z"/><path class="cls-1" d="M41.35,11.92V4.72l-3.11,5.54h-.73L34.39,4.72v7.2H33.2V2.49h1.26l3.41,6.12L41.3,2.49h1.25v9.43Z"/><path class="cls-1" d="M44,9.92a1.79,1.79,0,0,1,.37-1.14,2.41,2.41,0,0,1,1-.74A4,4,0,0,1,47,7.77a6.92,6.92,0,0,1,1,.08,4.6,4.6,0,0,1,.92.22V7.56a1.6,1.6,0,0,0-.48-1.23A1.91,1.91,0,0,0,47,5.87a2.9,2.9,0,0,0-1.09.21,6,6,0,0,0-1.11.59l-.43-.82a6.07,6.07,0,0,1,1.36-.7,4.43,4.43,0,0,1,1.41-.23,2.89,2.89,0,0,1,2.09.73,2.64,2.64,0,0,1,.77,2v2.91a.44.44,0,0,0,.09.31.39.39,0,0,0,.29.11v.91l-.3,0H49.9a.81.81,0,0,1-.62-.23.9.9,0,0,1-.23-.47l0-.44a3,3,0,0,1-1.19.9,3.61,3.61,0,0,1-1.44.32,2.76,2.76,0,0,1-1.24-.28,2.19,2.19,0,0,1-.85-.77A2,2,0,0,1,44,9.92Zm4.51.49a1.61,1.61,0,0,0,.25-.37.86.86,0,0,0,.1-.33V8.86A4.31,4.31,0,0,0,48,8.62a4.48,4.48,0,0,0-.89-.09,2.69,2.69,0,0,0-1.44.35,1.07,1.07,0,0,0-.55.95,1.27,1.27,0,0,0,.18.64,1.45,1.45,0,0,0,.53.51,1.8,1.8,0,0,0,.87.19,2.65,2.65,0,0,0,1-.21A2.32,2.32,0,0,0,48.52,10.41Z"/><path class="cls-1" d="M54.67,12.05a3,3,0,0,1-1.3-.29,3.08,3.08,0,0,1-1-.78,3.65,3.65,0,0,1-.66-1.13,4,4,0,0,1-.23-1.33,4.16,4.16,0,0,1,.23-1.38A3.72,3.72,0,0,1,52.36,6a3.26,3.26,0,0,1,1-.79,2.92,2.92,0,0,1,1.3-.28,2.7,2.7,0,0,1,1.51.42,3.67,3.67,0,0,1,1.08,1.07V5h1v6.82a2.84,2.84,0,0,1-.47,1.65,3,3,0,0,1-1.28,1,4.5,4.5,0,0,1-1.79.35,4,4,0,0,1-1.91-.41,3.67,3.67,0,0,1-1.23-1.12l.67-.6a2.63,2.63,0,0,0,1.07.92,3.36,3.36,0,0,0,1.4.3A3,3,0,0,0,56,13.75a1.89,1.89,0,0,0,.86-.69,2,2,0,0,0,.33-1.17V10.67a2.93,2.93,0,0,1-2.47,1.38Zm.36-1a1.94,1.94,0,0,0,.71-.13,2.82,2.82,0,0,0,.64-.35,2.11,2.11,0,0,0,.49-.5,1.64,1.64,0,0,0,.27-.57v-2a2.61,2.61,0,0,0-.53-.84,2.49,2.49,0,0,0-.79-.58,2.18,2.18,0,0,0-.9-.2,2,2,0,0,0-1,.22,2.31,2.31,0,0,0-.71.61,3.08,3.08,0,0,0-.45.84,2.81,2.81,0,0,0-.16.94,2.48,2.48,0,0,0,.19,1,2.74,2.74,0,0,0,.5.82,2.29,2.29,0,0,0,1.69.75Z"/><path class="cls-1" d="M60.19,3.68V2.22h1.17V3.68Zm0,8.24V5h1.17v6.93Z"/><path class="cls-1" d="M66.31,12.05a3.6,3.6,0,0,1-1.42-.28A3.3,3.3,0,0,1,63.77,11,3.52,3.52,0,0,1,63,9.83a3.79,3.79,0,0,1,.18-3.15A3.36,3.36,0,0,1,64.45,5.4a3.54,3.54,0,0,1,1.85-.48,3.38,3.38,0,0,1,1.79.46,2.86,2.86,0,0,1,1.13,1.23L68.08,7a2,2,0,0,0-.74-.76,2.23,2.23,0,0,0-2.23.06,2.4,2.4,0,0,0-.83.9,2.74,2.74,0,0,0-.3,1.3,2.7,2.7,0,0,0,.31,1.31,2.49,2.49,0,0,0,.83.93,2.08,2.08,0,0,0,1.17.34,2.17,2.17,0,0,0,.79-.15,2,2,0,0,0,.66-.39,1.25,1.25,0,0,0,.39-.54l1.14.35a2.44,2.44,0,0,1-.64.9,3.26,3.26,0,0,1-1,.61A3.66,3.66,0,0,1,66.31,12.05Z"/><path class="cls-1" d="M70.6,3.68V2.22h1.17V3.68Zm0,8.24V5h1.17v6.93Z"/><path class="cls-1" d="M73.11,9.92a1.8,1.8,0,0,1,.38-1.14,2.38,2.38,0,0,1,1-.74,4.07,4.07,0,0,1,1.54-.27,6.8,6.8,0,0,1,1,.08,4.29,4.29,0,0,1,.92.22V7.56a1.6,1.6,0,0,0-.48-1.23,1.9,1.9,0,0,0-1.35-.46,3,3,0,0,0-1.1.21,6,6,0,0,0-1.11.59l-.42-.82a5.81,5.81,0,0,1,1.35-.7,4.48,4.48,0,0,1,1.41-.23,2.9,2.9,0,0,1,2.1.73,2.68,2.68,0,0,1,.77,2v2.91a.44.44,0,0,0,.09.31.36.36,0,0,0,.28.11v.91l-.3,0H79a.8.8,0,0,1-.62-.23.77.77,0,0,1-.23-.47l0-.44a2.89,2.89,0,0,1-1.18.9,3.66,3.66,0,0,1-1.45.32,2.72,2.72,0,0,1-1.23-.28,2.12,2.12,0,0,1-.85-.77A1.92,1.92,0,0,1,73.11,9.92Zm4.52.49a2,2,0,0,0,.25-.37A.82.82,0,0,0,78,9.71V8.86a4,4,0,0,0-.86-.24,4.56,4.56,0,0,0-.89-.09,2.64,2.64,0,0,0-1.44.35,1.07,1.07,0,0,0-.55.95,1.27,1.27,0,0,0,.18.64,1.37,1.37,0,0,0,.53.51,1.75,1.75,0,0,0,.87.19,2.6,2.6,0,0,0,1-.21A2.36,2.36,0,0,0,77.63,10.41Z"/><path class="cls-1" d="M87,11.92H85.86V8.07a3,3,0,0,0-.34-1.6,1.17,1.17,0,0,0-1-.5,2.18,2.18,0,0,0-.95.23,3,3,0,0,0-.84.64,2.51,2.51,0,0,0-.52.93v4.15H81V5h1.06V6.51a3.21,3.21,0,0,1,.72-.84,3.13,3.13,0,0,1,1-.55A3.26,3.26,0,0,1,85,4.92a2.07,2.07,0,0,1,1,.22,1.61,1.61,0,0,1,.64.6,3,3,0,0,1,.33.92A6.72,6.72,0,0,1,87,7.8Z"/><path class="cls-1" d="M40.89,19.66a3.35,3.35,0,0,0-.66-.58,3.66,3.66,0,0,0-.78-.42,4.84,4.84,0,0,0-.91-.25,5.79,5.79,0,0,0-1-.09,4.09,4.09,0,0,0-2.64.69A2.3,2.3,0,0,0,34,20.86a1.92,1.92,0,0,0,.38,1.25,2.55,2.55,0,0,0,1.18.74,15.08,15.08,0,0,0,2.07.54A14.31,14.31,0,0,1,40,24a3.6,3.6,0,0,1,1.51,1A2.68,2.68,0,0,1,42,26.8a3.12,3.12,0,0,1-.31,1.44,2.69,2.69,0,0,1-.91,1,4.47,4.47,0,0,1-1.4.61,7.25,7.25,0,0,1-1.81.21,7.78,7.78,0,0,1-1.83-.21,7.48,7.48,0,0,1-1.64-.61,6.4,6.4,0,0,1-1.43-1l.47-.72a4.67,4.67,0,0,0,.86.74,5.23,5.23,0,0,0,1.05.55,7.41,7.41,0,0,0,1.21.36,6.58,6.58,0,0,0,1.35.13,4.57,4.57,0,0,0,2.53-.6,2,2,0,0,0,.92-1.78,2,2,0,0,0-.42-1.33,3,3,0,0,0-1.29-.82,15.85,15.85,0,0,0-2.18-.61A14.93,14.93,0,0,1,35,23.53a3.13,3.13,0,0,1-1.38-.94A2.55,2.55,0,0,1,33.12,21a3.12,3.12,0,0,1,.55-1.88,3.36,3.36,0,0,1,1.54-1.18,6,6,0,0,1,2.28-.4,6.45,6.45,0,0,1,1.5.16,4.63,4.63,0,0,1,1.27.48,4.9,4.9,0,0,1,1.09.81Z"/><path class="cls-1" d="M47.84,30.16a4.22,4.22,0,0,1-1.77-.37,4.54,4.54,0,0,1-1.43-1,4.85,4.85,0,0,1-1-1.5,5,5,0,0,1-.34-1.82,4.84,4.84,0,0,1,.58-2.35,4.47,4.47,0,0,1,1.59-1.67,4.33,4.33,0,0,1,2.3-.62,4.24,4.24,0,0,1,2.18.56,3.58,3.58,0,0,1,1.41,1.55l-.85.28A2.9,2.9,0,0,0,49.41,22a3.35,3.35,0,0,0-3.42.08,3.56,3.56,0,0,0-1.28,1.38,4,4,0,0,0-.48,2,4.17,4.17,0,0,0,.48,2A3.91,3.91,0,0,0,46,28.85a3.24,3.24,0,0,0,1.79.53A3.28,3.28,0,0,0,49,29.14a3.43,3.43,0,0,0,1-.62,1.78,1.78,0,0,0,.58-.82l.86.25a2.74,2.74,0,0,1-.79,1.14,4.24,4.24,0,0,1-2.89,1.07Z"/><path class="cls-1" d="M60.9,30H60V25a4.41,4.41,0,0,0-.58-2.51,1.89,1.89,0,0,0-1.67-.84,3.12,3.12,0,0,0-1.43.36,4,4,0,0,0-1.24,1,3.93,3.93,0,0,0-.75,1.43V30h-.87V17.26h.87v5.85a4.35,4.35,0,0,1,1.55-1.69A4,4,0,0,1,58,20.8a2.79,2.79,0,0,1,1.31.28,2.33,2.33,0,0,1,.89.79,3.78,3.78,0,0,1,.51,1.26,7.5,7.5,0,0,1,.17,1.66Z"/><path class="cls-1" d="M67.33,30.16a4.38,4.38,0,0,1-1.77-.36,4.14,4.14,0,0,1-1.4-1,4.6,4.6,0,0,1-.92-1.5,4.88,4.88,0,0,1,.93-5.08,4.35,4.35,0,0,1,1.41-1,4.32,4.32,0,0,1,3.5,0,4.68,4.68,0,0,1,2.35,2.52,5,5,0,0,1,0,3.59,4.62,4.62,0,0,1-.93,1.5,4.18,4.18,0,0,1-1.41,1A4.3,4.3,0,0,1,67.33,30.16Zm-3.55-4.64a4,4,0,0,0,.48,1.94,3.84,3.84,0,0,0,1.28,1.4,3.17,3.17,0,0,0,1.78.52,3.2,3.2,0,0,0,1.78-.53,3.79,3.79,0,0,0,1.3-1.42,4.09,4.09,0,0,0,.48-2,4,4,0,0,0-.48-1.94,3.86,3.86,0,0,0-1.3-1.42,3.19,3.19,0,0,0-1.77-.53,3.08,3.08,0,0,0-1.77.54,4,4,0,0,0-1.3,1.42A4.11,4.11,0,0,0,63.78,25.52Z"/><path class="cls-1" d="M77.66,30.16a4.31,4.31,0,0,1-1.77-.36,4,4,0,0,1-1.4-1,4.62,4.62,0,0,1-.93-1.5,5,5,0,0,1,0-3.59,4.68,4.68,0,0,1,.93-1.49,4.5,4.5,0,0,1,1.42-1,4.1,4.1,0,0,1,1.75-.37,4,4,0,0,1,1.74.37,4.5,4.5,0,0,1,1.42,1,4.71,4.71,0,0,1,.94,1.49,5,5,0,0,1,0,3.59,4.62,4.62,0,0,1-.93,1.5,4.32,4.32,0,0,1-1.42,1A4.25,4.25,0,0,1,77.66,30.16ZM74.1,25.52a4,4,0,0,0,1.76,3.34,3.19,3.19,0,0,0,1.78.52,3.24,3.24,0,0,0,1.79-.53,3.84,3.84,0,0,0,1.29-1.42,4.09,4.09,0,0,0,.48-2,4,4,0,0,0-.48-1.94,3.92,3.92,0,0,0-1.29-1.42,3.19,3.19,0,0,0-1.77-.53,3.13,3.13,0,0,0-1.78.54,4.11,4.11,0,0,0-1.29,1.42A4,4,0,0,0,74.1,25.52Z"/><path class="cls-1" d="M84.25,17.26h.89v11a1.13,1.13,0,0,0,.26.86,1,1,0,0,0,.68.24,3.9,3.9,0,0,0,.58-.05,3,3,0,0,0,.52-.14l.18.71a5.88,5.88,0,0,1-.74.2,4.57,4.57,0,0,1-.75.08,1.6,1.6,0,0,1-1.17-.44,1.62,1.62,0,0,1-.45-1.2Z"/></g></g></svg>
